<svg xmlns="http://www.w3.org/2000/svg" width="46" height="26" viewBox="0 0 46 26"><defs><style>.a{fill:#f15d3a;}.b{fill:#fff384;}</style></defs><g transform="translate(0.204 0.335)"><ellipse class="a" cx="23" cy="13" rx="23" ry="13" transform="translate(-0.204 -0.335)"/><path class="b" d="M20.246,21.469v-4.4h-1L16.16,21.553v.726h3.158v1.638h.929V22.279h.844v-.844Zm-3.048,0,1.824-2.651c.059-.1.127-.194.177-.287a1.765,1.765,0,0,0,.135-.228v3.166Z" transform="translate(-2.516 -2.658)"/><path class="b" d="M27.815,18.235a1.689,1.689,0,0,0-.5-.659,1.9,1.9,0,0,0-.76-.38,3.276,3.276,0,0,0-.937-.127H23.56v6.847h.92V21.342h1.081a3.512,3.512,0,0,0,.971-.11,2.347,2.347,0,0,0,.777-.422,1.756,1.756,0,0,0,.507-.667A2.17,2.17,0,0,0,28,19.2a2.229,2.229,0,0,0-.186-.963Zm-.76.963a1.317,1.317,0,0,1-.388,1.038,1.6,1.6,0,0,1-1.106.346H24.48V17.855h1.14a1.689,1.689,0,0,1,1.089.312,1.275,1.275,0,0,1,.346,1.03Z" transform="translate(-3.668 -2.658)"/><path class="b" d="M30.175,17.1l-.405,2.043h.659l.844-2.043Z" transform="translate(-4.635 -2.662)"/><path class="b" d="M36.8,21.2a1.478,1.478,0,0,0-.312-.549,1.781,1.781,0,0,0-.557-.414,3.377,3.377,0,0,0-.844-.253l-.946-.169a1.6,1.6,0,0,1-.844-.363.954.954,0,0,1-.253-.7,1.082,1.082,0,0,1,.346-.785,1.342,1.342,0,0,1,.422-.236,1.807,1.807,0,0,1,.591-.093,1.5,1.5,0,0,1,.583.1,1.241,1.241,0,0,1,.405.262,1.275,1.275,0,0,1,.245.38,1.79,1.79,0,0,1,.118.464V18.9H36.7v-.059a2.33,2.33,0,0,0-.177-.794,1.908,1.908,0,0,0-.439-.625,2.1,2.1,0,0,0-.7-.4,3.04,3.04,0,0,0-.963-.144,3.1,3.1,0,0,0-.954.144,1.993,1.993,0,0,0-.735.405,1.689,1.689,0,0,0-.473.616,1.824,1.824,0,0,0-.169.768,2.221,2.221,0,0,0,.093.642A1.545,1.545,0,0,0,32.5,20a1.917,1.917,0,0,0,.574.422,2.735,2.735,0,0,0,.844.27l.937.169a1.461,1.461,0,0,1,.844.38,1.038,1.038,0,0,1,.245.7,1.511,1.511,0,0,1-.076.481.946.946,0,0,1-.253.4,1.25,1.25,0,0,1-.481.262,2.263,2.263,0,0,1-.735.1,1.874,1.874,0,0,1-.684-.11,1.359,1.359,0,0,1-.8-.709,1.689,1.689,0,0,1-.144-.5v-.051H31.82v.059a2.254,2.254,0,0,0,.2.844,1.942,1.942,0,0,0,.515.659,2.448,2.448,0,0,0,.794.422,3.428,3.428,0,0,0,1.055.152,2.769,2.769,0,0,0,1.866-.557,1.942,1.942,0,0,0,.633-1.511A2.415,2.415,0,0,0,36.8,21.2Z" transform="translate(-4.954 -2.628)"/><path class="b" d="M26.116,8.21a3.791,3.791,0,0,0,.447-.194,1.689,1.689,0,0,0,.464-.355,1.866,1.866,0,0,0,.338-.566,2.069,2.069,0,0,0,.11-.844,1.857,1.857,0,0,0-.3-.963,1.739,1.739,0,0,0-.675-.608,2.778,2.778,0,0,0-1.334-.262l-2.44.093h0l.245,6.754h.2l.684-.068L23.8,8.438l1.435-.051,1.469,2.744H27.77Zm-.844-.583-1.511.059-.093-2.474,1.545-.051a1.444,1.444,0,0,1,.954.262,1.106,1.106,0,0,1,.4.844,1.553,1.553,0,0,1-.076.583,1.038,1.038,0,0,1-.27.4,1.022,1.022,0,0,1-.414.245,1.756,1.756,0,0,1-.557.135Z" transform="translate(-3.539 -0.687)"/><path class="b" d="M12.868,14.391,8.714,9.08h0L7.7,9.857h0l1.613,4.872c.051.144.093.279.127.388s.068.2.093.279,0,.11.059.16-.084-.059-.135-.1h0L9.212,15.3l-.346-.228L4.543,12.331H4.5L3.53,13.1h0L7.684,18.41h0l.659-.549-3.5-4.416h.051l.1.068.194.127.1.068c.11.076.253.169.414.262l4.137,2.643.093.059.675-.523v-.093L8.993,11.427l-.152-.473v-.076l-.093-.245L8.7,10.5h0l3.47,4.424h0l.667-.515h0Z" transform="translate(-0.55 -1.414)"/><path class="b" d="M35.331,5.43h-.017l-3.8,2.6.777-3.276.008-.034-.878-.211-1.554,6.6-.008.034.887.152.5-2.119L32.4,8.385l1.478,3.588,1.081.329-1.8-4.433L36.3,5.726l.076-.051Z" transform="translate(-4.649 -0.702)"/><path class="b" d="M45.776,9.375,45.75,9.35l-.549.566,1.672,1.63-4.1,4.2.659.608,4.078-4.179,1.646,1.6.025.025.557-.566Z" transform="translate(-6.659 -1.456)"/><path class="b" d="M14.6,11.919a1.857,1.857,0,0,0,1.756,1.266h.228a3.056,3.056,0,0,0,.6-.144,2.592,2.592,0,0,0,1.114-.726,1.874,1.874,0,0,0,.464-1.055v-.076l.042.068a1.326,1.326,0,0,0,.642.633.929.929,0,0,0,.363.068,2.457,2.457,0,0,0,.768-.152h.084c-.042-.118-.228-.659-.279-.777h0a1.444,1.444,0,0,1-.464.051.4.4,0,0,1-.355-.186,1.266,1.266,0,0,1-.16-.321l-.946-2.752a3.428,3.428,0,0,0-.692-1.266,1.6,1.6,0,0,0-.971-.49h-.329a2.685,2.685,0,0,0-1.207.3,2.28,2.28,0,0,0-.912.785,2.128,2.128,0,0,0-.177.338,1.959,1.959,0,0,0-.084,1.14.285.285,0,0,0,.051.16l.8-.279h0a1.157,1.157,0,0,1,.059-.844,1.494,1.494,0,0,1,.844-.667,1.765,1.765,0,0,1,.591-.135,1.038,1.038,0,0,1,.515.127,1.9,1.9,0,0,1,.726,1.089l.127.363h0a15.662,15.662,0,0,0-1.689.743,2.308,2.308,0,0,0-1.579,2.28A2,2,0,0,0,14.6,11.919Zm.988-1.216a2.406,2.406,0,0,1,.844-.667,15.5,15.5,0,0,1,1.621-.726h0l.042.127a2.879,2.879,0,0,1,.186,1.1,1.933,1.933,0,0,1-.22.844,1.689,1.689,0,0,1-.473.583,2.17,2.17,0,0,1-.608.338,1.866,1.866,0,0,1-.54.093,1.224,1.224,0,0,1-.4-.068,1.013,1.013,0,0,1-.566-.675,1,1,0,0,1,.11-.971Z" transform="translate(-2.185 -0.944)"/><path class="b" d="M38.488,9.938l3.749,2.077a4.669,4.669,0,0,0,.844-2.533,2.271,2.271,0,0,0-.4-1.182,2.533,2.533,0,0,0-1.663-1,2.888,2.888,0,0,0-2.313.726,4.66,4.66,0,0,0-1.072,1.393,3.69,3.69,0,0,0-.405,2.778,2.736,2.736,0,0,0,2.052,1.781,2.254,2.254,0,0,0,2.17-.726l-.794-.439a1.292,1.292,0,0,1-.253.211,1.393,1.393,0,0,1-1.359.068,1.849,1.849,0,0,1-.9-.844,2.533,2.533,0,0,1,.329-2.313h0ZM40.4,8.055a1.435,1.435,0,0,1,.464,0,1.967,1.967,0,0,1,.38.084l.2.1a1.689,1.689,0,0,1,.574.5,1.385,1.385,0,0,1,.236.616,1.782,1.782,0,0,1-.059.692,3.47,3.47,0,0,1-.287.735v.068h0l-2.955-1.63h0V9.17l.093-.135.152-.186a1.688,1.688,0,0,1,.2-.22,2.153,2.153,0,0,1,.253-.22l.3-.194a1.731,1.731,0,0,1,.346-.135Z" transform="translate(-5.779 -1.132)"/></g></svg>